<svg width="595" height="326" viewBox="0 0 595 326" fill="none" xmlns="http://www.w3.org/2000/svg">
<path d="M561.551 46.941C586.729 140.577 559.24 242.513 558.853 244.082C558.922 243.585 559.537 236.26 559.537 236.26C567.61 173.358 547.935 137.881 547.935 137.881C561.214 192.301 536.71 223.331 522.34 236.26C516.956 241.099 512.948 245.23 512.948 245.23C512.533 245.23 512.165 238.699 511.857 236.26C502.2 159.454 547.925 61.62 547.925 61.62C518.67 86.693 500.949 168.289 493.154 213.185C502.447 137.526 487.086 102.681 487.086 102.681C493.154 165.956 477.912 217.89 471.516 236.26C469.909 240.888 468.838 245.23 468.838 245.23C468.094 245.23 467.431 238.89 466.795 236.26C455.808 190.523 461.232 77.742 461.232 77.742C450.324 104.049 443.758 158.105 440.249 197.341C440.27 130.824 418.64 90.939 418.64 90.939C441.459 176.007 411.035 231.737 411.035 231.737C417.113 155.476 395.822 136.409 395.822 136.409C411.55 167.974 376.049 230.284 376.049 230.284C362.364 148.152 395.822 32.273 395.822 32.273C375.563 59.803 363.672 128.711 357.445 178.809C356.78 115.17 329.222 90.939 329.222 90.939C356.919 155.476 328.903 234.673 328.903 234.673C331.949 158.411 312.165 121.73 312.165 121.73C314.652 155.4 286.509 215.615 276.276 236.251C274.024 240.774 272.616 245.221 272.616 245.221C272.031 245.221 271.536 238.785 271.079 236.251C260.855 179.603 281.74 58.666 281.74 58.666C257.801 76.624 243.164 204.341 239.861 236.261C239.385 240.861 239.148 245.231 239.148 245.231C239.009 245.231 238.85 238.69 238.702 236.261C235.548 186.68 235.896 131.666 235.896 131.666C225.83 142.319 217.897 245.221 217.847 245.221L218.115 236.251C224.659 108.123 201.118 66.01 201.118 66.01C212.64 128.96 191.835 211.647 184.973 236.251C183.684 240.889 182.871 245.221 182.871 245.221C181.363 245.221 180.074 238.919 178.944 236.251C162.968 198.48 182.871 111.47 182.871 111.47C164.505 134.229 158.228 174.41 156.185 204.484C157.871 50.365 144.841 0 144.841 0C154.213 55.577 134.082 202.151 129.163 236.251C128.876 238.26 128.905 238.049 129.163 236.251H128.767C132.406 184.365 114.417 90.939 114.417 90.939C114.417 131.666 104.719 211.857 101.654 236.251C101.079 240.841 100.733 245.221 100.733 245.221C99.176 242.228 98.422 238.719 97.3902 236.251C74.2145 169.858 100.733 58.666 100.733 58.666C65.4111 104.087 61.5927 208.069 61.2256 236.25C61.1862 239.014 61.1955 238.421 61.2256 236.25C61.2256 236.25 63.0301 247.037 58.0823 236.25C41.1154 200.897 62.1579 90.938 62.1579 90.938C41.3124 112.301 32.8347 209.006 30.9607 236.25C30.6538 240.792 30.267 245.22 30.267 245.22C29.7505 245.22 29.1864 238.67 28.7591 236.25C12.208 142.662 61.2557 39.004 61.2557 39.004C12.5948 68.342 0 245.21 0 245.21V325.89H595V236.25C595.089 72.081 561.551 46.941 561.551 46.941Z" fill="#636E5D"/>
</svg>
