<svg width="215" height="202" viewBox="0 0 215 202" fill="none" xmlns="http://www.w3.org/2000/svg">
<path d="M204.568 48.4457C196.603 27.0037 175.829 30.9809 166.487 37.4418C169.2 28.0648 171.799 21.9375 171.866 21.7828C172.636 20.0017 171.813 17.9357 170.036 17.1664C168.262 16.397 166.185 17.2156 165.42 18.9968C164.734 20.5741 149.901 55.4371 154.019 88.9019H161.095C159.686 78.2668 160.399 67.2982 161.98 57.3874C180.538 73.6926 191.102 54.1688 197.43 52.9112C201.951 52.0118 209.238 61.0166 204.568 48.4457Z" fill="#4F473C" fill-opacity="0.8"/>
<path d="M214.314 183.763H0V201.329H214.314V183.763Z" fill="#4F473C" fill-opacity="0.8"/>
<path d="M90.6442 127.549H63.711H59.179H25.2961L29.5122 148.629H86.4282L90.6442 127.549Z" fill="#4F473C" fill-opacity="0.8"/>
<path d="M94.8606 106.469H84.3134H79.1384H74.9676H72.5048H70.4003H67.5441H64.9406H64.9197H62.2284H54.3761H52.0222H47.3528H43.8888H39.3179H21.0801L24.5936 124.036H56.2452H65.7699H91.347L94.8606 106.469Z" fill="#4F473C" fill-opacity="0.8"/>
<path d="M80.8072 176.736L85.7257 152.142H30.2146L35.1335 176.736H80.8072Z" fill="#4F473C" fill-opacity="0.8"/>
<path d="M7.02673 81.8753L14.0534 102.955H17.5666H26.6941H31.8412H38.9873H43.8356H46.7796H49.1336H51.6879H54.3791H57.5168H61.961H64.9473H65.0843H69.5285H70.2593H70.688H72.2936H76.5905H78.9059H79.2817H84.2495H101.887L108.913 81.8753H85.56C86.9584 71.8939 89.678 61.4591 94.7126 52.5388C94.7126 52.5388 92.176 55.0437 89.1437 60.9532C90.433 50.3218 89.474 43.7448 88.996 41.4048C92.1477 32.6285 96.2755 24.0804 101.69 16.6006C101.69 16.6006 81.9903 31.9117 73.4003 81.8716H72.2337C72.434 77.5854 72.7889 73.0846 73.3367 68.4858C74.932 61.7119 77.2717 55.0228 80.6621 49.0219C80.6621 49.0219 78.0833 51.5794 75.0161 57.5947C77.117 46.5559 80.56 35.4289 86.0762 25.6617C86.0762 25.6617 71.0286 40.3298 66.303 81.8753H61.7541C61.7156 81.1199 61.6803 80.3435 61.6487 79.5422C62.3795 61.5785 65.6365 39.6835 75.5371 22.1482C75.5371 22.1482 68.9249 28.609 63.0893 45.0587C64.9197 31.3286 68.5946 16.8817 75.5371 4.58159C75.5371 4.58159 55.5144 24.0984 54.4111 81.8753H51.8466C51.5692 80.5963 51.2984 79.2861 51.0317 77.9403C51.6078 59.6356 54.7451 36.792 64.9973 18.635C64.9973 18.635 54.2781 29.0907 48.0909 57.3345C46.8788 43.1827 47.3565 27.7978 51.6993 13.92C51.6993 13.92 38.9491 33.0925 44.7989 79.0154C44.7111 79.9533 44.6336 80.916 44.5601 81.8786H42.1815C41.0852 77.782 39.926 73.9734 38.7312 70.4003C43.822 36.7707 38.7349 22.97 38.7349 22.97C40.0381 34.3814 39.1284 47.0857 37.3082 59.0522C38.9421 16.8854 26.143 0 26.143 0C32.5793 16.8711 33.219 36.4194 31.8731 53.1674C21.7161 31.6868 11.4323 24.6917 11.4323 24.6917C20.5004 35.6989 26.6699 49.4433 30.8683 62.7693C29.902 70.2773 28.655 76.8509 27.548 81.8749H7.02673V81.8753ZM88.7227 42.1955C88.417 55.1143 84.9634 68.1838 80.3469 80.0481C81.6501 68.8267 84.1132 55.2899 88.7227 42.1955Z" fill="#4F473C" fill-opacity="0.8"/>
<path d="M158.101 176.736H161.614C176.802 176.736 186.207 162.149 186.207 148.629V138.089H129.994V148.629C129.994 163.076 143.654 176.736 158.101 176.736Z" fill="#4F473C" fill-opacity="0.8"/>
<path d="M186.207 92.4155H161.649H154.524H129.994V134.576H186.207V92.4155Z" fill="#4F473C" fill-opacity="0.8"/>
</svg>
